<svg width="1821" height="512" viewBox="0 0 1821 512" fill="none" xmlns="http://www.w3.org/2000/svg">
<path d="M477.602 255.998C477.602 385.785 372.332 491 242.478 491C112.62 491 7.34985 385.785 7.34985 255.998C7.34985 126.206 112.62 21 242.478 21C372.332 21 477.602 126.206 477.602 255.998Z" fill="#FCEE21"/>
<path d="M493.839 138.794C479.634 112.426 459.055 91.4674 435.893 79.7705C412.173 67.7828 388.541 66.8679 369.356 77.1994C366.877 78.5319 364.516 80.0333 362.272 81.6895L159.68 227.71C150.521 234.223 144.761 244.108 143.522 255.073L80.2383 295.766C70.216 302.213 64.4607 313.614 65.2212 325.513C65.3714 327.873 65.6155 330.486 65.9911 333.287L32.07 350.032C31.5349 349.512 30.9481 349.033 30.2862 348.639C27.2255 346.809 23.4231 346.837 20.3624 348.705L6.17626 357.385C2.2659 359.782 -0.100026 364.099 0.00324808 368.65C0.345933 383.213 4.89941 418.787 39.7499 434.571C41.4868 435.354 43.3505 435.744 45.2094 435.744C47.3078 435.744 49.3873 435.246 51.251 434.261L61.7662 428.696C64.6814 427.162 66.5873 424.286 66.8689 421.006C66.9065 420.575 66.8361 420.153 66.8173 419.726L104.836 400.043C106.17 401 107.479 401.976 108.906 402.896C114.192 406.302 120.257 408.033 126.388 408.033C130.937 408.029 135.528 407.081 139.865 405.148L207.177 375.223C207.308 375.298 207.43 375.383 207.562 375.458C213.528 378.948 220.298 380.713 227.114 380.713C232.404 380.713 237.723 379.648 242.708 377.499L467.917 280.442C470.969 279.401 473.945 278.134 476.813 276.59C495.999 266.264 508.237 246.041 511.274 219.65C514.241 193.877 508.054 165.158 493.839 138.794Z" fill="#1B1464"/>
<path d="M57.4005 420.443L46.8806 426.013C45.8995 426.529 44.6743 426.548 43.6087 426.069C13.5792 412.472 9.64067 381.233 9.34493 368.434C9.31207 367.191 9.96927 366.008 11.0537 365.347L25.2398 356.667L25.498 356.653C25.6999 356.775 25.6905 356.967 25.6858 357.051C23.8832 389.111 44.8057 410.215 57.4381 419.941" fill="#057DBC"/>
<path d="M54.4854 349.38L34.9899 359.003C34.436 376.663 41.9563 390.495 50.298 400.325L74.4925 387.797C62.4563 377.015 57.532 362.527 54.4854 349.38Z" fill="#01AEF0"/>
<path d="M67.7045 342.854L54.4853 349.38C57.5319 362.527 62.4562 377.015 74.4924 387.797L50.298 400.325C54.2928 405.035 58.4708 408.836 62.0525 411.679L96.8138 393.681C79.2384 377.93 71.2487 358.689 67.7045 342.854Z" fill="#057DBC"/>
<path d="M143.104 266.442L125.346 277.862C125.909 305.183 130.97 338.767 164.689 362.044L105.146 388.515C107.864 390.781 110.765 392.982 113.972 395.046C120.52 399.274 128.782 399.86 136.068 396.623L197.746 369.203C152.61 338.045 143.494 294.795 143.104 266.442Z" fill="#057DBC"/>
<path d="M125.346 277.862L85.294 303.616C78.1164 308.228 73.9948 316.392 74.5441 324.917C75.7552 343.928 82.2803 369.438 105.146 388.515L164.689 362.044C130.97 338.767 125.909 305.183 125.346 277.862Z" fill="#01AEF0"/>
<path d="M485.62 143.224C472.307 118.53 453.149 98.951 431.677 88.094C422.702 83.5663 413.801 80.8262 405.258 79.8409C408.07 80.9201 410.905 82.1822 413.74 83.6132C435.212 94.4608 454.37 114.035 467.683 138.743C480.991 163.441 486.812 190.199 484.061 214.104C481.39 237.31 470.912 254.951 454.571 263.819L446.737 267.193C439.418 269.646 431.475 270.388 423.19 269.477C437.916 275.07 452.196 275.854 464.674 271.678L472.508 268.3C488.849 259.437 499.327 241.791 501.998 218.585C504.749 194.679 498.933 167.922 485.62 143.224Z" fill="#057DBC"/>
<path d="M446.737 267.192L454.572 263.819C470.912 254.951 481.39 237.31 484.061 214.104C486.807 190.199 480.991 163.441 467.683 138.743C454.37 114.035 435.212 94.4608 413.74 83.6131C410.905 82.1821 408.07 80.92 405.258 79.8409C402.911 79.5781 400.592 79.4092 398.306 79.4092C389.518 79.4092 381.223 81.4033 373.783 85.4148C371.731 86.5174 369.774 87.7561 367.91 89.1355H367.915L367.788 89.234C354.808 98.8665 346.504 114.913 344.166 135.214C341.415 159.101 347.232 185.863 360.545 210.561C373.853 235.255 393.015 254.843 414.487 265.691C417.402 267.164 420.303 268.38 423.19 269.477C431.476 270.388 439.418 269.646 446.737 267.192Z" fill="#01AEF0"/>
<path d="M425.087 115.527C410.83 105.918 397.198 103.741 386.706 109.4C376.21 115.044 370.525 127.623 370.708 144.8C370.877 160.903 376.191 179.45 385.669 197.035C395.142 214.62 407.718 229.259 421.078 238.258C430.138 244.371 438.939 247.468 446.854 247.468C451.389 247.468 455.632 246.45 459.454 244.381C469.955 238.736 475.635 226.162 475.456 208.985C475.287 192.878 469.974 174.335 460.5 156.75C451.023 139.165 438.447 124.522 425.087 115.527Z" fill="#1B1464"/>
<path d="M455.027 236.165C447.737 240.097 437.531 238.089 426.298 230.521C414.172 222.352 402.662 208.891 393.888 192.615C385.119 176.329 380.2 159.321 380.049 144.701C379.904 131.165 383.842 121.542 391.133 117.615C393.574 116.306 396.339 115.645 399.362 115.645C405.371 115.645 412.393 118.23 419.867 123.26C431.992 131.428 443.502 144.894 452.276 161.17C461.05 177.456 465.965 194.464 466.12 209.084C466.26 222.62 462.322 232.238 455.027 236.165Z" fill="white"/>
<path d="M352.32 214.991C338.115 188.627 331.919 159.908 334.885 134.145C335.989 124.545 338.326 115.781 341.758 107.997L165.121 235.302C157.591 240.66 153.033 248.936 152.587 258.02C151.54 279.49 155.131 315.528 184.18 345.57L386.809 258.245C373.337 246.759 361.497 232.013 352.32 214.991Z" fill="#01AEF0"/>
<path d="M410.276 274.024C402.07 269.876 394.198 264.546 386.809 258.245L184.18 345.57C191.714 353.368 200.943 360.772 212.28 367.397C220.326 372.108 230.32 372.675 239.014 368.927L438.282 283.051C429.142 281.798 419.716 278.796 410.276 274.024Z" fill="#057DBC"/>
<path d="M721.448 304.3C721.448 299.1 719.548 294.6 715.748 290.8C712.148 287 707.548 283.5 701.948 280.3C696.548 277.1 690.548 273.9 683.948 270.7C677.548 267.5 671.548 263.8 665.948 259.6C660.548 255.2 655.948 250.1 652.148 244.3C648.548 238.5 646.748 231.4 646.748 223C646.748 217 648.148 211.6 650.948 206.8C653.748 201.8 657.548 197.6 662.348 194.2C667.148 190.8 672.848 188.2 679.448 186.4C686.248 184.4 693.548 183.4 701.348 183.4C712.148 183.4 722.148 184.3 731.348 186.1C740.748 187.7 748.948 190 755.948 193C755.148 199.4 753.548 206.3 751.148 213.7C748.748 220.9 746.448 227.5 744.248 233.5H734.048L721.448 202.9C719.048 201.9 716.548 201.3 713.948 201.1C711.348 200.7 708.448 200.5 705.248 200.5C699.248 200.5 694.648 202.3 691.448 205.9C688.448 209.3 686.948 213.2 686.948 217.6C686.948 222.6 688.748 227 692.348 230.8C696.148 234.4 700.748 237.8 706.148 241C711.748 244.2 717.748 247.4 724.148 250.6C730.748 253.8 736.748 257.5 742.148 261.7C747.748 265.7 752.348 270.5 755.948 276.1C759.748 281.7 761.648 288.4 761.648 296.2C761.648 310 756.048 320.9 744.848 328.9C733.648 336.7 718.648 340.6 699.848 340.6C690.248 340.6 680.348 339.6 670.148 337.6C659.948 335.6 651.148 332.8 643.748 329.2C644.148 322 645.848 314.7 648.848 307.3C651.848 299.9 655.048 293.3 658.448 287.5H668.648L683.348 320.2C685.548 321.8 687.948 322.8 690.548 323.2C693.348 323.4 695.948 323.5 698.348 323.5C704.148 323.5 709.448 321.8 714.248 318.4C719.048 315 721.448 310.3 721.448 304.3ZM859.793 397H776.993V385.3C783.793 382.1 790.393 379.7 796.793 378.1V208.3L776.993 205.9V194.2C780.193 192.8 784.093 191.5 788.693 190.3C793.493 189.1 798.393 188.1 803.393 187.3C808.393 186.3 813.193 185.5 817.793 184.9C822.593 184.3 826.593 183.8 829.793 183.4H839.993V217H840.293C843.693 207.4 848.993 199.4 856.193 193C863.593 186.6 873.793 183.4 886.793 183.4C895.593 183.4 903.493 184.9 910.493 187.9C917.693 190.7 923.693 195.2 928.493 201.4C933.493 207.4 937.293 215.2 939.893 224.8C942.693 234.2 944.093 245.5 944.093 258.7C944.093 271.3 942.293 282.7 938.693 292.9C935.293 303.1 930.293 311.7 923.693 318.7C917.293 325.7 909.393 331.1 899.993 334.9C890.793 338.7 880.293 340.6 868.493 340.6C861.693 340.6 856.293 340.1 852.293 339.1C848.493 338.3 844.393 336.8 839.993 334.6V378.1C843.193 378.5 846.393 379.2 849.593 380.2C852.793 381.4 856.193 383.1 859.793 385.3V397ZM869.393 207.4C862.593 207.4 856.493 209.8 851.093 214.6C845.893 219.4 842.193 226.8 839.993 236.8V316.6C843.193 319 846.593 320.8 850.193 322C853.793 323 858.493 323.5 864.293 323.5C875.693 323.5 884.093 318 889.493 307C894.893 296 897.593 279.9 897.593 258.7C897.593 242.3 895.493 229.7 891.293 220.9C887.293 211.9 879.993 207.4 869.393 207.4ZM964.905 205.9C961.905 205.1 959.105 204.1 956.505 202.9C954.105 201.7 951.605 200.3 949.005 198.7V187H1027.91V198.4C1023.71 201.2 1018.01 203.7 1010.81 205.9L1041.11 281.2L1046.21 300.4H1046.81L1051.61 280.9L1075.01 205.9C1069.01 204.7 1063.51 202.3 1058.51 198.7V187H1116.41V198.7C1112.21 201.5 1106.51 203.9 1099.31 205.9L1050.41 337C1045.61 349.8 1040.81 360.2 1036.01 368.2C1031.21 376.4 1026.41 382.9 1021.61 387.7C1016.81 392.5 1012.01 395.8 1007.21 397.6C1002.41 399.6 997.605 400.9 992.805 401.5C990.805 399.7 989.005 397.4 987.405 394.6C985.805 392 984.405 389.1 983.205 385.9C982.005 382.9 981.005 379.8 980.205 376.6C979.405 373.4 978.905 370.4 978.705 367.6L982.605 360.4H1019.21C1021.01 357.6 1022.51 354.6 1023.71 351.4C1025.11 348.2 1026.71 343.4 1028.51 337L964.905 205.9ZM1191.2 183.4C1204.2 183.4 1215 184.8 1223.6 187.6C1232.2 190.2 1238.7 193.5 1243.1 197.5C1252.5 187.3 1263.3 180.2 1275.5 176.2C1276.9 177.2 1278.3 178.7 1279.7 180.7C1281.1 182.5 1282.3 184.5 1283.3 186.7C1284.3 188.9 1285.1 191.1 1285.7 193.3C1286.3 195.5 1286.6 197.3 1286.6 198.7L1282.7 205.9H1251.2C1253.4 208.7 1255.4 212.4 1257.2 217C1259.2 221.4 1260.2 226.7 1260.2 232.9C1260.2 239.5 1258.8 245.7 1256 251.5C1253.2 257.3 1248.9 262.5 1243.1 267.1C1237.5 271.5 1230.3 275 1221.5 277.6C1212.9 280.2 1202.8 281.5 1191.2 281.5C1187.8 281.5 1184.7 281.5 1181.9 281.5C1179.3 281.3 1177 281 1175 280.6C1174.2 281.8 1173.3 283.3 1172.3 285.1C1171.5 286.7 1171.1 288.3 1171.1 289.9C1171.1 293.3 1173.5 296 1178.3 298C1183.1 300 1189.2 301.8 1196.6 303.4C1204 305 1211.9 306.8 1220.3 308.8C1228.9 310.8 1236.9 313.5 1244.3 316.9C1251.7 320.1 1257.9 324.4 1262.9 329.8C1267.9 335 1270.5 341.8 1270.7 350.2C1270.9 358.2 1268.9 365.3 1264.7 371.5C1260.5 377.7 1254.7 382.9 1247.3 387.1C1240.1 391.5 1231.5 394.8 1221.5 397C1211.7 399.4 1201.2 400.6 1190 400.6C1176.8 400.6 1165.5 399.5 1156.1 397.3C1146.9 395.3 1139.4 392.5 1133.6 388.9C1127.8 385.3 1123.5 381.2 1120.7 376.6C1118.1 372 1116.8 367.2 1116.8 362.2C1116.8 356.6 1117.9 351.8 1120.1 347.8C1122.3 343.8 1125.4 340.3 1129.4 337.3C1133.4 334.3 1138 331.8 1143.2 329.8C1148.6 327.8 1154.5 326 1160.9 324.4C1157.9 323.6 1155 322.6 1152.2 321.4C1149.4 320.2 1146.9 318.8 1144.7 317.2C1142.5 315.4 1140.7 313.4 1139.3 311.2C1137.9 308.8 1137.2 306.1 1137.2 303.1C1137.2 300.5 1138 298 1139.6 295.6C1141.2 293 1143.3 290.7 1145.9 288.7C1148.5 286.5 1151.3 284.6 1154.3 283C1157.3 281.2 1160.3 279.7 1163.3 278.5C1150.7 275.7 1140.7 270.3 1133.3 262.3C1125.9 254.1 1122.2 243.7 1122.2 231.1C1122.2 216.1 1128.4 204.4 1140.8 196C1153.2 187.6 1170 183.4 1191.2 183.4ZM1229 359.8C1229 354.4 1227.3 350 1223.9 346.6C1220.7 343.4 1216.5 340.7 1211.3 338.5C1206.1 336.5 1200.2 334.8 1193.6 333.4C1187.2 331.8 1180.8 330 1174.4 328C1169.2 332 1165.5 336 1163.3 340C1161.1 344 1160 348.8 1160 354.4C1160 363.6 1163.1 370.7 1169.3 375.7C1175.7 380.9 1184.6 383.5 1196 383.5C1207.2 383.5 1215.5 381.1 1220.9 376.3C1226.3 371.7 1229 366.2 1229 359.8ZM1165.4 232.6C1165.4 243 1167.1 250.9 1170.5 256.3C1174.1 261.7 1181 264.4 1191.2 264.4C1201 264.4 1207.7 261.7 1211.3 256.3C1215.1 250.7 1217 242.8 1217 232.6C1217 221.8 1215.1 213.8 1211.3 208.6C1207.5 203.2 1200.8 200.5 1191.2 200.5C1181.2 200.5 1174.4 203.1 1170.8 208.3C1167.2 213.5 1165.4 221.6 1165.4 232.6ZM1373.44 337H1290.64V325.3C1297.24 322.1 1303.84 319.7 1310.44 318.1V136.3L1287.64 133.9V122.2C1290.24 121 1293.84 119.8 1298.44 118.6C1303.04 117.4 1307.94 116.4 1313.14 115.6C1318.54 114.6 1323.84 113.8 1329.04 113.2C1334.44 112.4 1339.24 111.8 1343.44 111.4H1353.64V318.1C1360.24 319.7 1366.84 322.1 1373.44 325.3V337ZM1521.95 293.5C1521.95 297.9 1521.95 301.7 1521.95 304.9C1522.15 308.1 1522.45 311.5 1522.85 315.1L1543.55 318.1V328.6C1541.15 329.8 1537.85 331 1533.65 332.2C1529.65 333.4 1525.35 334.6 1520.75 335.8C1516.35 336.8 1511.95 337.6 1507.55 338.2C1503.15 339 1499.25 339.6 1495.85 340H1485.65C1483.65 335.4 1482.45 330.8 1482.05 326.2C1481.65 321.6 1481.35 316 1481.15 309.4H1479.65C1478.65 313.4 1476.95 317.3 1474.55 321.1C1472.15 324.7 1469.05 328 1465.25 331C1461.65 333.8 1457.35 336.1 1452.35 337.9C1447.35 339.7 1441.75 340.6 1435.55 340.6C1428.95 340.6 1422.85 339.6 1417.25 337.6C1411.65 335.6 1406.75 332.8 1402.55 329.2C1398.35 325.6 1395.05 321.3 1392.65 316.3C1390.25 311.1 1389.05 305.3 1389.05 298.9C1389.05 289.9 1390.75 282.5 1394.15 276.7C1397.55 270.9 1402.85 266.2 1410.05 262.6C1417.45 258.8 1426.85 256 1438.25 254.2C1449.85 252.4 1463.85 251.1 1480.25 250.3C1481.85 233.1 1481.15 220.5 1478.15 212.5C1475.15 204.5 1468.65 200.5 1458.65 200.5C1452.45 200.5 1446.75 201.5 1441.55 203.5L1427.45 239.5H1414.25C1412.65 237.1 1411.05 234.4 1409.45 231.4C1408.05 228.2 1406.65 224.9 1405.25 221.5C1404.05 217.9 1402.95 214.3 1401.95 210.7C1401.15 207.1 1400.55 203.6 1400.15 200.2C1407.75 195 1417.55 190.9 1429.55 187.9C1441.55 184.9 1454.25 183.4 1467.65 183.4C1479.05 183.4 1488.35 184.7 1495.55 187.3C1502.75 189.7 1508.35 193.1 1512.35 197.5C1516.55 201.7 1519.45 206.7 1521.05 212.5C1522.65 218.3 1523.45 224.5 1523.45 231.1C1523.45 243.1 1523.15 254 1522.55 263.8C1522.15 273.4 1521.95 283.3 1521.95 293.5ZM1454.45 316.6C1458.65 316.6 1462.25 315.8 1465.25 314.2C1468.25 312.6 1470.75 310.7 1472.75 308.5C1474.95 306.3 1476.55 303.9 1477.55 301.3C1478.75 298.7 1479.65 296.4 1480.25 294.4V264.4C1470.85 264.6 1463.15 265.2 1457.15 266.2C1451.15 267.2 1446.45 268.9 1443.05 271.3C1439.65 273.5 1437.25 276.4 1435.85 280C1434.65 283.4 1434.05 287.6 1434.05 292.6C1434.05 300.2 1435.85 306.1 1439.45 310.3C1443.05 314.5 1448.05 316.6 1454.45 316.6ZM1634.34 304.3C1634.34 299.1 1632.44 294.6 1628.64 290.8C1625.04 287 1620.44 283.5 1614.84 280.3C1609.44 277.1 1603.44 273.9 1596.84 270.7C1590.44 267.5 1584.44 263.8 1578.84 259.6C1573.44 255.2 1568.84 250.1 1565.04 244.3C1561.44 238.5 1559.64 231.4 1559.64 223C1559.64 217 1561.04 211.6 1563.84 206.8C1566.64 201.8 1570.44 197.6 1575.24 194.2C1580.04 190.8 1585.74 188.2 1592.34 186.4C1599.14 184.4 1606.44 183.4 1614.24 183.4C1625.04 183.4 1635.04 184.3 1644.24 186.1C1653.64 187.7 1661.84 190 1668.84 193C1668.04 199.4 1666.44 206.3 1664.04 213.7C1661.64 220.9 1659.34 227.5 1657.14 233.5H1646.94L1634.34 202.9C1631.94 201.9 1629.44 201.3 1626.84 201.1C1624.24 200.7 1621.34 200.5 1618.14 200.5C1612.14 200.5 1607.54 202.3 1604.34 205.9C1601.34 209.3 1599.84 213.2 1599.84 217.6C1599.84 222.6 1601.64 227 1605.24 230.8C1609.04 234.4 1613.64 237.8 1619.04 241C1624.64 244.2 1630.64 247.4 1637.04 250.6C1643.64 253.8 1649.64 257.5 1655.04 261.7C1660.64 265.7 1665.24 270.5 1668.84 276.1C1672.64 281.7 1674.54 288.4 1674.54 296.2C1674.54 310 1668.94 320.9 1657.74 328.9C1646.54 336.7 1631.54 340.6 1612.74 340.6C1603.14 340.6 1593.24 339.6 1583.04 337.6C1572.84 335.6 1564.04 332.8 1556.64 329.2C1557.04 322 1558.74 314.7 1561.74 307.3C1564.74 299.9 1567.94 293.3 1571.34 287.5H1581.54L1596.24 320.2C1598.44 321.8 1600.84 322.8 1603.44 323.2C1606.24 323.4 1608.84 323.5 1611.24 323.5C1617.04 323.5 1622.34 321.8 1627.14 318.4C1631.94 315 1634.34 310.3 1634.34 304.3ZM1769.98 304.3C1769.98 299.1 1768.08 294.6 1764.28 290.8C1760.68 287 1756.08 283.5 1750.48 280.3C1745.08 277.1 1739.08 273.9 1732.48 270.7C1726.08 267.5 1720.08 263.8 1714.48 259.6C1709.08 255.2 1704.48 250.1 1700.68 244.3C1697.08 238.5 1695.28 231.4 1695.28 223C1695.28 217 1696.68 211.6 1699.48 206.8C1702.28 201.8 1706.08 197.6 1710.88 194.2C1715.68 190.8 1721.38 188.2 1727.98 186.4C1734.78 184.4 1742.08 183.4 1749.88 183.4C1760.68 183.4 1770.68 184.3 1779.88 186.1C1789.28 187.7 1797.48 190 1804.48 193C1803.68 199.4 1802.08 206.3 1799.68 213.7C1797.28 220.9 1794.98 227.5 1792.78 233.5H1782.58L1769.98 202.9C1767.58 201.9 1765.08 201.3 1762.48 201.1C1759.88 200.7 1756.98 200.5 1753.78 200.5C1747.78 200.5 1743.18 202.3 1739.98 205.9C1736.98 209.3 1735.48 213.2 1735.48 217.6C1735.48 222.6 1737.28 227 1740.88 230.8C1744.68 234.4 1749.28 237.8 1754.68 241C1760.28 244.2 1766.28 247.4 1772.68 250.6C1779.28 253.8 1785.28 257.5 1790.68 261.7C1796.28 265.7 1800.88 270.5 1804.48 276.1C1808.28 281.7 1810.18 288.4 1810.18 296.2C1810.18 310 1804.58 320.9 1793.38 328.9C1782.18 336.7 1767.18 340.6 1748.38 340.6C1738.78 340.6 1728.88 339.6 1718.68 337.6C1708.48 335.6 1699.68 332.8 1692.28 329.2C1692.68 322 1694.38 314.7 1697.38 307.3C1700.38 299.9 1703.58 293.3 1706.98 287.5H1717.18L1731.88 320.2C1734.08 321.8 1736.48 322.8 1739.08 323.2C1741.88 323.4 1744.48 323.5 1746.88 323.5C1752.68 323.5 1757.98 321.8 1762.78 318.4C1767.58 315 1769.98 310.3 1769.98 304.3Z" fill="black"/>
</svg>
